<?xml version="1.0" encoding="utf-8"?>
<!-- Generator: Adobe Illustrator 18.0.0, SVG Export Plug-In . SVG Version: 6.00 Build 0)  -->
<!DOCTYPE svg PUBLIC "-//W3C//DTD SVG 1.1//EN" "http://www.w3.org/Graphics/SVG/1.1/DTD/svg11.dtd">
<svg version="1.1" id="Layer_1" xmlns="http://www.w3.org/2000/svg" xmlns:xlink="http://www.w3.org/1999/xlink" x="0px" y="0px"
	 viewBox="0 0 770.1 138.5" enable-background="new 0 0 770.1 138.5" xml:space="preserve">
<linearGradient id="SVGID_1_" gradientUnits="userSpaceOnUse" x1="558.6778" y1="126.2078" x2="558.6778" y2="12.7058">
	<stop  offset="0" style="stop-color:#D36939"/>
	<stop  offset="1" style="stop-color:#E14C38"/>
</linearGradient>
<path fill="url(#SVGID_1_)" d="M516.3,22.7c0-5.6,4.3-10,10-10H592c5,0,9,4,9,9s-4,9-9,9h-55.9v30.8h48.6c5,0,9,4,9,9s-4,9-9,9
	h-48.6v36.9c0,5.5-4.3,9.8-9.8,9.8c-5.6,0-10-4.3-10-9.8V22.7z"/>
<linearGradient id="SVGID_2_" gradientUnits="userSpaceOnUse" x1="350.5069" y1="69.0542" x2="448.7149" y2="69.0542">
	<stop  offset="0" style="stop-color:#D36939"/>
	<stop  offset="1" style="stop-color:#E14C38"/>
</linearGradient>
<path fill="url(#SVGID_2_)" d="M350.5,22c0-5.5,4.3-10,10-10h2.1c4.8,0,7.6,2.4,10.3,5.8l56.3,72.9V21.6c0-5.3,4.3-9.7,9.7-9.7
	c5.5,0,9.8,4.3,9.8,9.7v94.7c0,5.5-4.2,9.8-9.7,9.8h-0.8c-4.7,0-7.6-2.4-10.3-6l-58-75v71.5c0,5.3-4.3,9.7-9.7,9.7
	c-5.5,0-9.8-4.3-9.8-9.7V22z"/>
<linearGradient id="SVGID_3_" gradientUnits="userSpaceOnUse" x1="702.2891" y1="126.2078" x2="702.2891" y2="11.74">
	<stop  offset="0" style="stop-color:#D36939"/>
	<stop  offset="1" style="stop-color:#E14C38"/>
</linearGradient>
<path fill="url(#SVGID_3_)" d="M692.3,81.6l-38.8-53.3c-1.3-1.9-2.3-4.2-2.3-6.9c0-5.3,4.3-9.5,10-9.5c4.3,0,7.2,2.4,9.7,6
	l31.4,45.2l31.9-45.4c2.4-3.5,5.3-6,9.5-6c5.8,0,9.7,4.3,9.7,9.7c0,2.7-1.3,5.2-2.7,7.1l-38.5,52.6v35.3c0,5.5-4.3,9.8-10,9.8
	c-5.5,0-9.8-4.3-9.8-9.8V81.6z"/>
<linearGradient id="SVGID_4_" gradientUnits="userSpaceOnUse" x1="400.6117" y1="126.2078" x2="400.6117" y2="11.9006">
	<stop  offset="0" style="stop-color:#D36939"/>
	<stop  offset="1" style="stop-color:#E14C38"/>
</linearGradient>
<path fill="url(#SVGID_4_)" d="M351.5,22c0-5.5,4.3-10,10-10h2.1c4.8,0,7.6,2.4,10.3,5.8l56.3,72.9V21.6c0-5.3,4.3-9.7,9.7-9.7
	c5.5,0,9.8,4.3,9.8,9.7v94.7c0,5.5-4.2,9.8-9.7,9.8h-0.8c-4.7,0-7.6-2.4-10.3-6l-58-75v71.5c0,5.3-4.3,9.7-9.7,9.7
	c-5.5,0-9.8-4.3-9.8-9.7V22z"/>
<linearGradient id="SVGID_5_" gradientUnits="userSpaceOnUse" x1="558.6778" y1="126.2078" x2="558.6778" y2="12.7058">
	<stop  offset="0" style="stop-color:#D36939"/>
	<stop  offset="1" style="stop-color:#E14C38"/>
</linearGradient>
<path fill="url(#SVGID_5_)" d="M516.3,22.7c0-5.6,4.3-10,10-10H592c5,0,9,4,9,9s-4,9-9,9h-55.9v30.8h48.6c5,0,9,4,9,9s-4,9-9,9
	h-48.6v36.9c0,5.5-4.3,9.8-9.8,9.8c-5.6,0-10-4.3-10-9.8V22.7z"/>
<g>
	<g>
		<linearGradient id="SVGID_6_" gradientUnits="userSpaceOnUse" x1="65.8369" y1="11.5617" x2="65.8369" y2="127.4045">
			<stop  offset="0" style="stop-color:#D36939"/>
			<stop  offset="1" style="stop-color:#E14C38"/>
		</linearGradient>
		<path fill="url(#SVGID_6_)" d="M15.4,69.8v-0.3c0-31.8,23.8-57.9,57.8-57.9c17.3,0,28.6,5.1,38.4,12.6c2.1,1.6,3.8,4.3,3.8,7.8
			c0,5.4-4.3,9.6-9.8,9.6c-2.7,0-4.6-1-5.9-1.9c-7.7-6.2-16-10.1-26.7-10.1c-21.3,0-37,17.6-37,39.5v0.3c0,21.9,15.5,39.7,37,39.7
			c11.8,0,19.8-3.8,28-10.7c1.4-1.3,3.5-2.2,5.9-2.2c5,0,9.3,4.2,9.3,9.1c0,3-1.4,5.4-3.2,7c-10.6,9.3-22.6,15-40.6,15
			C39.8,127.4,15.4,102,15.4,69.8z"/>
	</g>
	<linearGradient id="SVGID_7_" gradientUnits="userSpaceOnUse" x1="65.8371" y1="122.9045" x2="65.8371" y2="16.0617">
		<stop  offset="0" style="stop-color:#D36939"/>
		<stop  offset="1" style="stop-color:#E14C38"/>
	</linearGradient>
	<path fill="url(#SVGID_7_)" d="M101,98.4c-8.2,6.9-16.2,10.7-28,10.7c-21.4,0-37-17.8-37-39.7v-0.3c0-21.9,15.7-39.5,37-39.5
		c10.7,0,19,3.8,26.7,10.1c1.3,1,3.2,1.9,5.9,1.9c2.5,0,4.7-0.9,6.4-2.3c0.1-0.5,0.1-1.1,0.1-1.7c0-4-1.8-7.6-4.9-10
		c-10.4-8-21.3-11.6-35.2-11.6c-30.4,0-53.3,23-53.3,53.4v0.3c0,14.4,5.3,27.8,15,37.7c9.8,10,23.1,15.5,37.6,15.5
		c14.9,0,26.4-4.3,37.4-13.9c2.6-2.4,4.1-5.6,4.1-9.1c0-0.6-0.1-1.1-0.1-1.6c-1.6-1.3-3.6-2.1-5.8-2.1
		C104.6,96.2,102.5,97.2,101,98.4z"/>
</g>
<g>
	<linearGradient id="SVGID_8_" gradientUnits="userSpaceOnUse" x1="364.0505" y1="12.0618" x2="364.0505" y2="124.6913">
		<stop  offset="0" style="stop-color:#D36939"/>
		<stop  offset="1" style="stop-color:#E14C38"/>
	</linearGradient>
	<path fill="url(#SVGID_8_)" d="M355.5,121.5V27c0-5.5,4.3-10,10-10h2.1c4.1,0,6.7,1.7,9,4.3l-2.7-3.5c-2.7-3.4-5.5-5.8-10.3-5.8
		h-2.1c-5.6,0-10,4.5-10,10v94.5c0,3.4,1.8,6.4,4.5,8.1C355.7,123.7,355.5,122.6,355.5,121.5z"/>
	<linearGradient id="SVGID_9_" gradientUnits="userSpaceOnUse" x1="439.7052" y1="11.9006" x2="439.7052" y2="95.7883">
		<stop  offset="0" style="stop-color:#D36939"/>
		<stop  offset="1" style="stop-color:#E14C38"/>
	</linearGradient>
	<path fill="url(#SVGID_9_)" d="M434.2,95.8V26.6c0-5.3,4.3-9.7,9.7-9.7c2,0,3.8,0.6,5.3,1.5c-1.3-3.8-4.9-6.5-9.3-6.5
		c-5.3,0-9.7,4.3-9.7,9.7v69.1L434.2,95.8z"/>
</g>
<g>
	<linearGradient id="SVGID_10_" gradientUnits="userSpaceOnUse" x1="558.6778" y1="12.7058" x2="558.6778" y2="27.1873">
		<stop  offset="0" style="stop-color:#D36939"/>
		<stop  offset="1" style="stop-color:#E14C38"/>
	</linearGradient>
	<path fill="url(#SVGID_10_)" d="M526.3,17.2H592c4.2,0,7.7,2.9,8.7,6.8c0.2-0.7,0.3-1.5,0.3-2.2c0-5-4-9-9-9h-65.7
		c-5.6,0-10,4.3-10,10v4.5C516.3,21.6,520.7,17.2,526.3,17.2z"/>
	<linearGradient id="SVGID_11_" gradientUnits="userSpaceOnUse" x1="564.9571" y1="61.4876" x2="564.9571" y2="72.7532">
		<stop  offset="0" style="stop-color:#D36939"/>
		<stop  offset="1" style="stop-color:#E14C38"/>
	</linearGradient>
	<path fill="url(#SVGID_11_)" d="M584.8,61.5h-48.6V66h48.6c4.2,0,7.7,2.9,8.7,6.8c0.2-0.7,0.3-1.5,0.3-2.2
		C593.8,65.5,589.8,61.5,584.8,61.5z"/>
</g>
<linearGradient id="SVGID_12_" gradientUnits="userSpaceOnUse" x1="702.2891" y1="11.74" x2="702.2891" y2="70.103">
	<stop  offset="0" style="stop-color:#D36939"/>
	<stop  offset="1" style="stop-color:#E14C38"/>
</linearGradient>
<path fill="url(#SVGID_12_)" d="M661.2,18.9c4.3,0,7.2,2.4,9.7,6l31.4,45.2l31.9-45.4c2.4-3.5,5.3-6,9.5-6c4.4,0,7.7,2.5,9,6
	c0.4-1.1,0.7-2.2,0.7-3.4c0-5.3-3.9-9.7-9.7-9.7c-4.2,0-7.1,2.4-9.5,6l-31.9,45.4l-31.4-45.2c-2.4-3.5-5.3-6-9.7-6
	c-5.6,0-10,4.2-10,9.5c0,1.3,0.2,2.6,0.6,3.7C653.3,21.4,656.8,18.9,661.2,18.9z"/>
<linearGradient id="SVGID_13_" gradientUnits="userSpaceOnUse" x1="228.9524" y1="127.3347" x2="228.9524" y2="10.7737">
	<stop  offset="0" style="stop-color:#D36939"/>
	<stop  offset="1" style="stop-color:#E14C38"/>
</linearGradient>
<path fill="url(#SVGID_13_)" d="M170,69.4v-0.3c0-31.7,24.5-58.3,59.1-58.3c34.6,0,58.8,26.2,58.8,58v0.3
	c0,31.7-24.5,58.3-59.1,58.3C194.2,127.3,170,101.1,170,69.4z M267.1,69.4v-0.3c0-21.9-15.9-40.1-38.3-40.1c-22.4,0-38,17.9-38,39.8
	v0.3c0,21.9,15.9,39.9,38.3,39.9C251.5,109,267.1,91.3,267.1,69.4z"/>
<linearGradient id="SVGID_14_" gradientUnits="userSpaceOnUse" x1="228.9524" y1="10.7737" x2="228.9524" y2="127.3347">
	<stop  offset="0" style="stop-color:#D36939"/>
	<stop  offset="1" style="stop-color:#E14C38"/>
</linearGradient>
<path fill="url(#SVGID_14_)" d="M229.1,10.8c-34.6,0-59.1,26.6-59.1,58.3v0.3c0,31.7,24.1,58,58.8,58c34.6,0,59.1-26.6,59.1-58.3
	v-0.3C287.9,37,263.7,10.8,229.1,10.8z M271.1,69.5c0,24.2-17.2,43.7-41.9,43.7c-24.7,0-42.3-19.9-42.3-44.1v-0.4
	c0-24.2,17.2-43.9,41.9-43.9c24.7,0,42.3,20.1,42.3,44.2V69.5z"/>
</svg>
