<?xml version="1.0" encoding="UTF-8" standalone="no"?>
<svg width="10px" height="13px" viewBox="0 0 10 13" version="1.1" xmlns="http://www.w3.org/2000/svg" xmlns:xlink="http://www.w3.org/1999/xlink" xmlns:sketch="http://www.bohemiancoding.com/sketch/ns">
    <g id="dashboard" stroke="none" stroke-width="1" fill="none" fill-rule="evenodd" sketch:type="MSPage">
        <g id="Unlocked-" sketch:type="MSArtboardGroup" transform="translate(-1142.000000, -175.000000)" fill="#FFFFFF">
            <g id="locked59-(2)" sketch:type="MSLayerGroup" transform="translate(1142.000000, 175.000000)">
                <path d="M9.01552,4.85002053 L9.01552,3.75627105 C9.01552,1.73329774 7.27816,0.0433921971 5.10666667,0.00731827515 C5.04736,0.00633264887 4.92877333,0.00633264887 4.86946667,0.00731827515 C2.69794667,0.0433921971 0.960613333,1.73329774 0.960613333,3.75627105 L0.960613333,4.85002053 L0.70768,4.85002053 C0.31792,4.85002053 0,5.22165092 0,5.68063244 L0,12.1664312 C0,12.6248953 0.31792,13 0.707706667,13 L9.26845333,13 C9.65824,13 9.97616,12.6248953 9.97616,12.1664312 L9.97616,5.68063244 C9.97613333,5.22165092 9.65824,4.85002053 9.26842667,4.85002053 L9.01552,4.85002053 Z M5.79010667,8.41796304 L5.79010667,10.07554 C5.79010667,10.2653717 5.61813333,10.4259795 5.41253333,10.4259795 L4.56362667,10.4259795 C4.35802667,10.4259795 4.18605333,10.2653717 4.18605333,10.07554 L4.18605333,8.41796304 C3.98666667,8.23658316 3.87058667,7.98583984 3.87058667,7.70843532 C3.87058667,7.18275154 4.31034667,6.73103901 4.86949333,6.71019302 C4.92874667,6.70797536 5.04744,6.70797536 5.10669333,6.71019302 C5.66584,6.73103901 6.1056,7.18275154 6.1056,7.70843532 C6.10557333,7.98583984 5.98946667,8.23658316 5.79010667,8.41796304 L5.79010667,8.41796304 Z M7.34858667,4.85002053 L5.10666667,4.85002053 L4.86946667,4.85002053 L2.62754667,4.85002053 L2.62754667,3.75627105 C2.62754667,2.55121971 3.68738667,1.55482546 4.98805333,1.55482546 C6.28872,1.55482546 7.34858667,2.55121971 7.34858667,3.75627105 L7.34858667,4.85002053 L7.34858667,4.85002053 Z" id="Shape" sketch:type="MSShapeGroup"></path>
            </g>
        </g>
    </g>
</svg>
