<?xml version="1.0" encoding="utf-8"?>
<!-- Generator: Adobe Illustrator 18.0.0, SVG Export Plug-In . SVG Version: 6.00 Build 0)  -->
<!DOCTYPE svg PUBLIC "-//W3C//DTD SVG 1.1//EN" "http://www.w3.org/Graphics/SVG/1.1/DTD/svg11.dtd">
<svg version="1.1" id="Layer_1" xmlns="http://www.w3.org/2000/svg" xmlns:xlink="http://www.w3.org/1999/xlink" x="0px" y="0px"
	 viewBox="0 0 149.3 138.9" enable-background="new 0 0 149.3 138.9" xml:space="preserve">
<g>
	<g>
		<linearGradient id="SVGID_1_" gradientUnits="userSpaceOnUse" x1="73.9648" y1="12.02" x2="73.9648" y2="127.8628">
			<stop  offset="0" style="stop-color:#D36939"/>
			<stop  offset="1" style="stop-color:#E14C38"/>
		</linearGradient>
		<path fill="url(#SVGID_1_)" d="M23.6,70.3v-0.3C23.6,38.1,47.4,12,81.3,12c17.3,0,28.6,5.1,38.4,12.6c2.1,1.6,3.8,4.3,3.8,7.8
			c0,5.4-4.3,9.6-9.8,9.6c-2.7,0-4.6-1-5.9-1.9c-7.7-6.2-16-10.1-26.7-10.1c-21.3,0-37,17.6-37,39.5v0.3c0,21.9,15.5,39.7,37,39.7
			c11.8,0,19.8-3.8,28-10.7c1.4-1.3,3.5-2.2,5.9-2.2c5,0,9.3,4.2,9.3,9.1c0,3-1.4,5.4-3.2,7c-10.6,9.3-22.6,15-40.6,15
			C47.9,127.9,23.6,102.4,23.6,70.3z"/>
	</g>
	<linearGradient id="SVGID_2_" gradientUnits="userSpaceOnUse" x1="73.965" y1="123.3628" x2="73.965" y2="16.52">
		<stop  offset="0" style="stop-color:#D36939"/>
		<stop  offset="1" style="stop-color:#E14C38"/>
	</linearGradient>
	<path fill="url(#SVGID_2_)" d="M109.2,98.9c-8.2,6.9-16.2,10.7-28,10.7c-21.4,0-37-17.8-37-39.7v-0.3c0-21.9,15.7-39.5,37-39.5
		c10.7,0,19,3.8,26.7,10.1c1.3,1,3.2,1.9,5.9,1.9c2.5,0,4.7-0.9,6.4-2.3c0.1-0.5,0.1-1.1,0.1-1.7c0-4-1.8-7.6-4.9-10
		c-10.4-8-21.3-11.6-35.2-11.6c-30.4,0-53.3,23-53.3,53.4v0.3c0,14.4,5.3,27.8,15,37.7c9.8,10,23.1,15.5,37.6,15.5
		c14.9,0,26.4-4.3,37.4-13.9c2.6-2.4,4.1-5.6,4.1-9.1c0-0.6-0.1-1.1-0.1-1.6c-1.6-1.3-3.6-2.1-5.8-2.1
		C112.7,96.7,110.6,97.6,109.2,98.9z"/>
</g>
</svg>
