<?xml version="1.0" encoding="UTF-8" standalone="no"?>
<svg width="11px" height="16px" viewBox="0 0 11 16" version="1.1" xmlns="http://www.w3.org/2000/svg" xmlns:xlink="http://www.w3.org/1999/xlink" xmlns:sketch="http://www.bohemiancoding.com/sketch/ns">
    <g id="dashboard" stroke="none" stroke-width="1" fill="none" fill-rule="evenodd" sketch:type="MSPage">
        <g id="Locked-" sketch:type="MSArtboardGroup" transform="translate(-1143.000000, -174.000000)" fill="#FFFFFF">
            <g id="unlocked44" sketch:type="MSLayerGroup" transform="translate(1143.000000, 174.000000)">
                <path d="M9.32577179,6.63977919 L9.07224809,6.63977919 L9.07224809,4.41540716 C9.07224809,2.04425948 7.33071622,0.0634968277 5.15402238,0.0212264266 C5.09459787,0.020055672 4.9756918,0.020055672 4.91626728,0.0212264266 C2.73954493,0.0634968277 0.998041579,2.04425948 0.998041579,4.41540716 L0.998041579,4.46479452 C0.998041579,4.9633511 1.37209668,5.36750789 1.83352064,5.36750789 C2.2949446,5.36750789 2.66897119,4.9633511 2.66897119,4.46479452 L2.66897119,4.41540716 C2.66897119,3.00295341 3.73134127,1.83506413 5.03511632,1.83506413 C6.33889137,1.83506413 7.40128997,3.00295341 7.40128997,4.41540716 L7.40128997,6.63977919 L0.744546397,6.63977919 C0.353838749,6.63977919 0.0351590909,7.07539231 0.0351590909,7.61338484 L0.0351590909,14.0433229 C0.0351590909,14.5806684 0.353838749,15.0203484 0.744546397,15.0203484 L9.32577179,15.0203484 C9.71650795,15.0203484 10.0351591,14.5806684 10.0351591,14.0433229 L10.0351591,7.61335403 C10.0351876,7.0753615 9.71650795,6.63977919 9.32577179,6.63977919 L9.32577179,6.63977919 Z M5.83911521,10.8218069 L5.83911521,12.7646741 C5.83911521,12.987179 5.66671568,13.175424 5.46064035,13.175424 L4.60970635,13.175424 C4.40360251,13.175424 4.23123148,12.987179 4.23123148,12.7646741 L4.23123148,10.8218069 C4.03137235,10.6092225 3.91500409,10.3153015 3.91500409,9.99017062 C3.91500409,9.37401483 4.35581196,8.84452567 4.9162958,8.82012468 C4.9756918,8.81750589 5.09465489,8.81750589 5.1540509,8.82012468 C5.71453473,8.84452567 6.15534261,9.37401483 6.15534261,9.99017062 C6.15534261,10.3152707 6.03897435,10.6092225 5.83911521,10.8218069 L5.83911521,10.8218069 Z" id="Shape" sketch:type="MSShapeGroup"></path>
            </g>
        </g>
    </g>
</svg>
